<?xml version="1.0" standalone="no"?>
<!DOCTYPE svg PUBLIC "-//W3C//DTD SVG 20010904//EN"
 "http://www.w3.org/TR/2001/REC-SVG-20010904/DTD/svg10.dtd">
<svg version="1.0" xmlns="http://www.w3.org/2000/svg"
 width="256.000000pt" height="256.000000pt" viewBox="0 0 256.000000 256.000000"
 preserveAspectRatio="xMidYMid meet">
<metadata>
Created by potrace 1.14, written by Peter Selinger 2001-2017
</metadata>
<g transform="translate(0.000000,256.000000) scale(0.100000,-0.100000)"
fill="#000000" stroke="none">
<path d="M430 1726 c0 -11 9 -16 28 -16 16 0 37 -6 48 -14 18 -14 19 -30 19
-406 l0 -392 -24 -19 c-13 -10 -34 -19 -47 -19 -13 0 -24 -6 -24 -12 0 -10 44
-13 185 -13 132 0 185 3 185 11 0 7 -15 15 -34 18 -58 11 -61 21 -64 218 l-4
178 74 0 c65 0 77 -3 96 -23 28 -30 47 -86 71 -211 23 -122 40 -160 84 -186
48 -30 138 -27 192 5 42 24 60 47 48 59 -4 3 -17 -3 -29 -15 -30 -28 -67 -19
-83 18 -6 16 -20 69 -30 119 -11 50 -25 104 -31 120 -23 59 -78 99 -153 113
l-42 7 55 18 c69 22 121 56 153 98 94 127 41 279 -116 333 -43 15 -96 19 -304
23 -227 4 -253 2 -253 -12z m458 -36 c47 -29 74 -95 75 -184 1 -156 -57 -216
-206 -216 l-59 0 4 188 c4 230 4 232 91 232 45 0 71 -6 95 -20z"/>
<path d="M1300 1725 c0 -10 10 -15 29 -15 69 0 74 -35 69 -481 -3 -357 -3
-353 -64 -365 -19 -3 -34 -11 -34 -18 0 -8 53 -11 185 -11 130 0 185 3 185 11
0 6 -17 14 -38 18 -57 9 -62 28 -62 226 l0 170 66 0 c36 0 74 -5 86 -11 30
-16 56 -84 82 -217 13 -65 31 -133 40 -149 20 -40 71 -63 141 -63 59 0 98 15
129 49 25 28 14 37 -19 15 -20 -13 -31 -15 -50 -6 -27 12 -26 10 -59 155 -14
59 -32 120 -41 136 -20 40 -62 68 -126 85 -30 8 -47 16 -39 19 179 59 236 122
228 256 -4 85 -33 127 -111 165 -76 38 -145 46 -384 46 -183 0 -213 -2 -213
-15z m465 -39 c42 -28 60 -83 60 -186 0 -153 -40 -200 -176 -208 l-79 -5 0
189 c0 208 5 230 58 236 38 5 112 -9 137 -26z"/>
</g>
</svg>
