<?xml version="1.0" encoding="UTF-8"?><svg id="Layer_2" xmlns="http://www.w3.org/2000/svg" viewBox="0 0 44.23 44.22"><defs><style>.cls-1{fill:#231f20;}</style></defs><g id="Layer_1-2"><g id="Layer_2-2"><g id="Layer_1-2"><path class="cls-1" d="M22.11,4c5.9,0,6.6,0,8.94,.12,6,.28,8.79,3.12,9.06,9.07,.11,2.33,.13,3,.13,8.93s0,6.61-.13,8.94c-.27,5.94-3.11,8.78-9.06,9.05-2.34,.11-3,.13-8.94,.13s-6.6,0-8.93-.13c-6-.27-8.79-3.13-9.07-9.06-.11-2.34-.11-3.05-.11-8.94s0-6.6,.13-8.93c.28-5.95,3.07-8.79,9.07-9.07,2.31-.11,3.01-.11,8.91-.11Zm0-4c-6,0-6.76,0-9.11,.13C5,.5,.5,5,.13,13c-.13,2.35-.13,3.11-.13,9.11s0,6.76,.13,9.12c.37,8.03,4.87,12.49,12.87,12.86,2.36,.11,3.12,.13,9.12,.13s6.76,0,9.12-.13c8-.37,12.49-4.83,12.86-12.86,.11-2.36,.13-3.11,.13-9.12s0-6.76-.13-9.11C43.73,5,39.27,.5,31.23,.13c-2.36-.13-3.11-.13-9.12-.13Zm0,10.76c-6.27,0-11.36,5.08-11.37,11.35,0,6.27,5.08,11.36,11.35,11.37,6.27,0,11.36-5.08,11.37-11.35,0,0,0-.01,0-.02,0-6.27-5.08-11.35-11.35-11.35Zm0,18.72c-4.07,0-7.37-3.3-7.37-7.37s3.3-7.37,7.37-7.37,7.37,3.3,7.37,7.37h0c0,4.07-3.3,7.37-7.37,7.37ZM33.91,7.66c-1.46,0-2.65,1.2-2.64,2.66,0,1.46,1.2,2.65,2.66,2.64,1.46,0,2.64-1.19,2.64-2.65,0-1.46-1.19-2.65-2.65-2.65,0,0,0,0-.01,0Z"/></g></g></g></svg>